<svg width="16" height="16" viewBox="0 0 16 16" fill="none" xmlns="http://www.w3.org/2000/svg">
<path d="M4.00024 3C3.44796 3 3.00024 3.44772 3.00024 4V12C3.00024 12.5523 3.44796 13 4.00024 13V9.5C4.00024 8.67157 4.67182 8 5.50024 8H10.5002C11.3287 8 12.0002 8.67157 12.0002 9.5V13C12.5525 13 13.0002 12.5523 13.0002 12V5.62132C13.0002 5.3561 12.8949 5.10175 12.7074 4.91421L11.086 3.29289C10.8985 3.10536 10.6441 3 10.3789 3H10.0002V4.5C10.0002 5.32843 9.32867 6 8.50024 6H6.50024C5.67182 6 5.00024 5.32843 5.00024 4.5V3H4.00024ZM6.00024 3V4.5C6.00024 4.77614 6.2241 5 6.50024 5H8.50024C8.77639 5 9.00024 4.77614 9.00024 4.5V3H6.00024ZM11.0002 13V9.5C11.0002 9.22386 10.7764 9 10.5002 9H5.50024C5.2241 9 5.00024 9.22386 5.00024 9.5V13H11.0002ZM2.00024 4C2.00024 2.89543 2.89567 2 4.00024 2H10.3789C10.9094 2 11.4181 2.21071 11.7931 2.58579L13.4145 4.20711C13.7895 4.58218 14.0002 5.09089 14.0002 5.62132V12C14.0002 13.1046 13.1048 14 12.0002 14H4.00024C2.89567 14 2.00024 13.1046 2.00024 12V4Z" fill="#0A0C0D"/>
</svg>
